<svg width="25" height="25" viewBox="0 0 25 25" fill="none" xmlns="http://www.w3.org/2000/svg">
<path d="M3.41885 9.08136C3.19611 9.08136 3.01562 9.2619 3.01562 9.48459C3.01562 9.70727 3.19611 9.88781 3.41885 9.88781C4.85923 9.88781 6.03106 11.0596 6.03106 12.5001C6.03106 13.9404 4.85923 15.1123 3.41885 15.1123C3.19611 15.1123 3.01562 15.2928 3.01562 15.5155C3.01562 15.7382 3.19611 15.9187 3.41885 15.9187C5.1674 15.9187 6.61267 14.5989 6.81294 12.9033H10.0808C10.3036 12.9033 10.4841 12.7228 10.4841 12.5001C10.4841 12.2774 10.3036 12.0968 10.0808 12.0968H6.81294C6.61267 10.4012 5.1674 9.08136 3.41885 9.08136Z" fill="#FDDEDC" stroke="#FDDEDC" stroke-width="0.00064"/>
<path d="M7.55608 1.92844C5.1807 1.92844 3.22554 3.76166 3.03129 6.08768C1.3279 6.28064 0 7.73043 0 9.48456C0 10.788 0.733333 11.9235 1.80892 12.5C0.733333 13.0766 0 14.212 0 15.5154C0 17.2696 1.3279 18.7194 3.03129 18.9123C3.22554 21.2383 5.1807 23.0716 7.55608 23.0716C10.0598 23.0716 12.0968 21.0346 12.0968 18.5309V6.46908C12.0968 3.96537 10.0598 1.92844 7.55608 1.92844ZM11.2903 10.1812C9.42027 9.9794 7.95936 8.39188 7.95936 6.46908C7.95936 6.24639 7.77887 6.06586 7.55613 6.06586C7.33339 6.06586 7.1529 6.24639 7.1529 6.46908C7.1529 8.83682 8.97489 10.786 11.2903 10.9909V14.0091C8.97489 14.2139 7.1529 16.1631 7.1529 18.5309C7.1529 18.7535 7.33339 18.9341 7.55613 18.9341C7.77887 18.9341 7.95936 18.7535 7.95936 18.5309C7.95936 16.6081 9.42027 15.0205 11.2903 14.8188V18.5309C11.2903 20.5899 9.61516 22.2651 7.55608 22.2651C5.49704 22.2651 3.82188 20.5899 3.82188 18.5309C3.82188 18.3082 3.6414 18.1276 3.41866 18.1276C1.97828 18.1277 0.806452 16.9558 0.806452 15.5154C0.806452 14.075 1.97828 12.9032 3.41866 12.9032C3.6414 12.9032 3.82188 12.7227 3.82188 12.5C3.82188 12.2773 3.6414 12.0968 3.41866 12.0968C1.97828 12.0968 0.806452 10.9249 0.806452 9.48456C0.806452 8.04419 1.97828 6.87236 3.41866 6.87236C3.6414 6.87236 3.82188 6.69182 3.82188 6.46914C3.82188 4.4101 5.49704 2.73489 7.55608 2.73489C9.61516 2.73489 11.2903 4.41005 11.2903 6.46914V10.1812Z" fill="#FDDEDC" stroke="#FDDEDC" stroke-width="0.00064"/>
<path d="M21.5818 15.1122C20.1414 15.1122 18.9696 13.9404 18.9696 12.5C18.9696 11.0596 20.1414 9.88775 21.5818 9.88775C21.8046 9.88775 21.985 9.70721 21.985 9.48452C21.985 9.26184 21.8046 9.0813 21.5818 9.0813C19.8333 9.0813 18.388 10.4011 18.1877 12.0968H14.9198C14.6971 12.0968 14.5166 12.2773 14.5166 12.5C14.5166 12.7227 14.6971 12.9032 14.9198 12.9032H18.1877C18.388 14.5988 19.8333 15.9187 21.5818 15.9187C21.8046 15.9187 21.985 15.7381 21.985 15.5154C21.985 15.2928 21.8046 15.1122 21.5818 15.1122Z" fill="#FDDEDC" stroke="#FDDEDC" stroke-width="0.00064"/>
<path d="M23.1912 12.5C24.2668 11.9234 25.0001 10.788 25.0001 9.48457C25.0001 7.73043 23.6722 6.28064 21.9688 6.08768C21.7746 3.76166 19.8194 1.92844 17.444 1.92844C14.9403 1.92844 12.9033 3.96537 12.9033 6.46914V18.5309C12.9033 21.0347 14.9403 23.0716 17.444 23.0716C19.8194 23.0716 21.7746 21.2384 21.9688 18.9124C23.6722 18.7194 25.0001 17.2696 25.0001 15.5154C25.0001 14.212 24.2668 13.0766 23.1912 12.5ZM21.5814 18.1277C21.3587 18.1277 21.1782 18.3082 21.1782 18.5309C21.1782 20.5899 19.5031 22.2652 17.444 22.2652C15.3849 22.2652 13.7098 20.59 13.7098 18.5309V14.8188C15.5798 15.0206 17.0407 16.6081 17.0407 18.5309C17.0407 18.7536 17.2212 18.9341 17.444 18.9341C17.6667 18.9341 17.8472 18.7536 17.8472 18.5309C17.8472 16.1632 16.0252 14.214 13.7098 14.0091V10.9909C16.0252 10.7861 17.8472 8.83688 17.8472 6.46914C17.8472 6.24645 17.6667 6.06591 17.444 6.06591C17.2212 6.06591 17.0407 6.24645 17.0407 6.46914C17.0407 8.39193 15.5798 9.97946 13.7098 10.1812V6.46914C13.7098 4.4101 15.3849 2.73489 17.444 2.73489C19.5031 2.73489 21.1782 4.41005 21.1782 6.46914C21.1782 6.69182 21.3587 6.87236 21.5814 6.87236C23.0218 6.87236 24.1936 8.04419 24.1936 9.48457C24.1936 10.9249 23.0218 12.0968 21.5814 12.0968C21.3587 12.0968 21.1782 12.2773 21.1782 12.5C21.1782 12.7227 21.3587 12.9032 21.5814 12.9032C23.0218 12.9032 24.1936 14.0751 24.1936 15.5154C24.1936 16.9558 23.0218 18.1277 21.5814 18.1277Z" fill="#FDDEDC" stroke="#FDDEDC" stroke-width="0.00064"/>
</svg>
